<svg width="18" height="17" viewBox="0 0 18 17" fill="none" xmlns="http://www.w3.org/2000/svg">
<path d="M6.19516 13.5034C6.19516 13.5694 6.12909 13.6025 6.02998 13.6025C5.93087 13.6355 5.86479 13.5694 5.86479 13.5034C5.86479 13.4373 5.93087 13.3712 6.02998 13.3712C6.12909 13.3712 6.19516 13.4373 6.19516 13.5034ZM5.17103 13.3382C5.20406 13.2721 5.30317 13.2391 5.40228 13.2721C5.50139 13.3051 5.53443 13.3712 5.53443 13.4373C5.50139 13.5034 5.40228 13.5364 5.33621 13.5034C5.2371 13.5034 5.17103 13.4043 5.17103 13.3382ZM6.65767 13.3051C6.72374 13.2721 6.82285 13.3382 6.82285 13.4043C6.85589 13.4703 6.78981 13.5034 6.69071 13.5364C6.5916 13.5694 6.49249 13.5364 6.49249 13.4703C6.49249 13.3712 6.55856 13.3051 6.65767 13.3051ZM8.80504 0.619141C13.3971 0.619141 17.1302 4.12101 17.1302 8.68004C17.1302 12.3471 14.8837 15.4856 11.5801 16.5758C11.1506 16.6749 10.9854 16.4106 10.9854 16.1793C10.9854 15.915 11.0185 14.5275 11.0185 13.4373C11.0185 12.6444 10.7542 12.1489 10.4569 11.8846C12.3069 11.6864 14.2561 11.4221 14.2561 8.25057C14.2561 7.32554 13.9257 6.89607 13.3971 6.30141C13.4632 6.07016 13.7605 5.21121 13.298 4.05493C12.6042 3.82368 11.0185 4.94692 11.0185 4.94692C10.3578 4.7487 9.66399 4.68263 8.93719 4.68263C8.24342 4.68263 7.54965 4.7487 6.88892 4.94692C6.88892 4.94692 5.27014 3.85671 4.60941 4.05493C4.1469 5.21121 4.41119 6.07016 4.5103 6.30141C3.98171 6.89607 3.71742 7.32554 3.71742 8.25057C3.71742 11.4221 5.6005 11.6864 7.45054 11.8846C7.18625 12.1158 6.98803 12.4792 6.92196 13.0078C6.42641 13.2391 5.2371 13.6025 4.5103 12.3141C4.04779 11.5212 3.22188 11.4551 3.22188 11.4551C2.429 11.4551 3.18884 11.9837 3.18884 11.9837C3.71742 12.2149 4.08082 13.173 4.08082 13.173C4.57637 14.6596 6.88892 14.1641 6.88892 14.1641C6.88892 14.8579 6.88892 15.9811 6.88892 16.2124C6.88892 16.4106 6.75678 16.6749 6.3273 16.6088C3.02366 15.4856 0.744141 12.3471 0.744141 8.68004C0.744141 4.12101 4.24601 0.619141 8.80504 0.619141ZM3.94868 12.0167C3.98171 11.9837 4.04779 12.0167 4.11386 12.0498C4.17993 12.1158 4.17993 12.2149 4.1469 12.248C4.08082 12.281 4.01475 12.248 3.94868 12.2149C3.91564 12.1489 3.88261 12.0498 3.94868 12.0167ZM3.58528 11.7524C3.61831 11.7194 3.65135 11.7194 3.71742 11.7524C3.7835 11.7855 3.81653 11.8185 3.81653 11.8515C3.7835 11.9176 3.71742 11.9176 3.65135 11.8846C3.58528 11.8515 3.55224 11.8185 3.58528 11.7524ZM4.64244 12.9417C4.70852 12.8757 4.80763 12.9087 4.8737 12.9748C4.93977 13.0409 4.93977 13.14 4.90674 13.173C4.8737 13.2391 4.77459 13.206 4.70852 13.14C4.60941 13.0739 4.60941 12.9748 4.64244 12.9417ZM4.27904 12.4462C4.34512 12.4132 4.41119 12.4462 4.47726 12.5123C4.5103 12.5783 4.5103 12.6775 4.47726 12.7105C4.41119 12.7435 4.34512 12.7105 4.27904 12.6444C4.21297 12.5783 4.21297 12.4792 4.27904 12.4462Z" fill="#FEFEFE"/>
</svg>
