<svg width="18" height="16" viewBox="0 0 18 16" fill="none" xmlns="http://www.w3.org/2000/svg">
<path d="M17.4237 8.38849C17.3465 8.38846 17.2702 8.37227 17.1997 8.34097L12.5031 6.24331C12.407 6.20008 12.3255 6.13001 12.2683 6.04154C12.2111 5.95307 12.1807 5.84996 12.1807 5.74461C12.1807 5.63926 12.2111 5.53615 12.2683 5.44769C12.3255 5.35922 12.407 5.28915 12.5031 5.24592L17.1997 3.15607C17.3321 3.0973 17.4824 3.09327 17.6178 3.14486C17.7532 3.19645 17.8626 3.29947 17.9224 3.43146C17.9809 3.56384 17.9846 3.71404 17.9326 3.84913C17.8807 3.98423 17.7772 4.0932 17.645 4.15217L14.0669 5.74527L17.6457 7.34422C17.7601 7.39496 17.8535 7.48348 17.9104 7.59492C17.9673 7.70637 17.9841 7.83399 17.9581 7.95637C17.9321 8.07876 17.8648 8.18848 17.7675 8.26716C17.6702 8.34583 17.5488 8.38867 17.4237 8.38849Z" fill="#FEFEFE"/>
<path d="M11.0221 15.9989C5.85864 15.9989 1.34432 12.5224 0.0461379 7.54385C0.0117408 7.40416 0.0337685 7.25655 0.107448 7.13299C0.181128 7.00944 0.300525 6.91989 0.43977 6.88375C0.579014 6.84761 0.72689 6.86779 0.851358 6.93992C0.975825 7.01206 1.06686 7.13033 1.10473 7.26911C2.28247 11.7698 6.35864 14.9091 11.0221 14.9078C11.0969 14.9026 11.1719 14.9129 11.2426 14.938C11.3133 14.963 11.3781 15.0024 11.4329 15.0535C11.4877 15.1047 11.5314 15.1666 11.5613 15.2354C11.5912 15.3042 11.6066 15.3784 11.6066 15.4534C11.6066 15.5283 11.5912 15.6025 11.5613 15.6713C11.5314 15.7401 11.4877 15.802 11.4329 15.8532C11.3781 15.9043 11.3133 15.9437 11.2426 15.9688C11.1719 15.9938 11.0969 16.0041 11.0221 15.9989Z" fill="#FEFEFE"/>
<path d="M9.13672 11.4668C8.9919 11.4668 8.853 11.4094 8.75048 11.3071C8.64796 11.2048 8.59019 11.066 8.58984 10.9212V0.546875C8.58984 0.401835 8.64746 0.262735 8.75002 0.160176C8.85258 0.057617 8.99168 0 9.13672 0C9.28176 0 9.42086 0.057617 9.52342 0.160176C9.62598 0.262735 9.68359 0.401835 9.68359 0.546875V10.9212C9.68325 11.066 9.62548 11.2048 9.52296 11.3071C9.42044 11.4094 9.28153 11.4668 9.13672 11.4668Z" fill="#FEFEFE"/>
</svg>
