<svg width="16" height="16" viewBox="0 0 16 16" fill="none" xmlns="http://www.w3.org/2000/svg">
<path d="M3.64627 15.2498H0.475933V5.05699H3.64627V15.2498ZM2.04406 3.69341C1.05546 3.69341 0.237305 2.84116 0.237305 1.81847C0.237305 0.829872 1.05546 0.0117188 2.04406 0.0117188C3.06675 0.0117188 3.8849 0.829872 3.8849 1.81847C3.8849 2.84116 3.06675 3.69341 2.04406 3.69341ZM12.3391 15.2498V10.3068C12.3391 9.11367 12.3051 7.61372 10.6688 7.61372C9.03245 7.61372 8.79382 8.87504 8.79382 10.2045V15.2498H5.62348V5.05699H8.65746V6.45467H8.69155C9.13472 5.67061 10.1574 4.81837 11.6914 4.81837C14.8959 4.81837 15.5095 6.93193 15.5095 9.6591V15.2498H12.3391Z" fill="#FEFEFE"/>
</svg>
